Coordinates
version=1
nRows=14
nColumns=24
inDegrees=yes

Units are S.I. units (second, meters, Newtons, ...)
Angles are in degrees.

endheader
time	pelvis_tilt	pelvis_list	pelvis_rotation	pelvis_tx	pelvis_ty	pelvis_tz	hip_flexion_r	hip_adduction_r	hip_rotation_r	knee_angle_r	ankle_angle_r	subtalar_angle_r	mtp_angle_r	hip_flexion_l	hip_adduction_l	hip_rotation_l	knee_angle_l	ankle_angle_l	subtalar_angle_l	mtp_angle_l	lumbar_extension	lumbar_bending	lumbar_rotation
      1.10216667	      4.00752292	      6.54418376	     -4.72297707	      0.17283084	      0.90941242	      0.28732328	      9.60166450	    -10.12692773	     -6.70399669	    -74.21521851	     -1.84002665	      3.96578551	      6.86309972	      7.23744744	      8.77547257	     -5.78665696	    -20.38672998	     12.14119846	     -7.16949526	      4.80686861	    -14.99940891	     -9.55117386	      2.56616561
      1.10633333	      3.92544029	      6.33800718	     -4.68113201	      0.17843399	      0.91044638	      0.28725405	     10.52026136	     -9.78619724	     -6.69227522	    -74.24843591	     -1.22021864	      4.11026928	      6.85147182	      6.65453937	      8.60910752	     -5.66141437	    -19.88498186	     12.22158197	     -7.10281609	      4.80491590	    -14.97343116	     -9.31206607	      2.43839248
      1.11050000	      3.84627853	      6.12611052	     -4.62822349	      0.18404711	      0.91148145	      0.28716568	     11.41032586	     -9.43675944	     -6.69259123	    -74.18785858	     -0.62426848	      4.30453245	      6.82476943	      6.05910022	      8.44142911	     -5.50204524	    -19.36099939	     12.29280088	     -7.05862340	      4.79962070	    -14.94903985	     -9.07188353	      2.28732425
      1.11466667	      3.77216579	      5.89073209	     -4.57674958	      0.18969136	      0.91252965	      0.28711636	     12.26425398	     -9.04246138	     -6.69273274	    -74.02063697	     -0.09154764	      4.34892303	      6.82366202	      5.45192602	      8.23786570	     -5.38354965	    -18.82904942	     12.35358191	     -6.97669935	      4.79843417	    -14.91027658	     -8.80513558	      2.20902472
      1.11883333	      3.70505270	      5.65768722	     -4.48960798	      0.19529100	      0.91354581	      0.28698255	     13.08729923	     -8.66585496	     -6.72720668	    -73.78617033	      0.52325562	      4.61905211	      6.78819300	      4.84621715	      8.05110826	     -5.17621684	    -18.30754274	     12.39572401	     -6.98977068	      4.78877355	    -14.93314305	     -8.51211233	      2.01762250
      1.12300000	      3.64265876	      5.40703666	     -4.40368544	      0.20092085	      0.91457088	      0.28687774	     13.87421906	     -8.25764387	     -6.76120693	    -73.44929101	      1.06249498	      4.76535428	      6.75028677	      4.22556874	      7.83854792	     -4.98863264	    -17.76718951	     12.42327543	     -6.98606092	      4.77782506	    -14.93700524	     -8.20852354	      1.87658579
      1.12716667	      3.57181480	      5.14774178	     -4.31587106	      0.20653740	      0.91555295	      0.28678780	     14.65098529	     -7.83016464	     -6.79201213	    -73.03291727	      1.58143874	      4.86980838	      6.73442338	      3.62527583	      7.60674952	     -4.83756018	    -17.24545443	     12.43610023	     -6.94434923	      4.77138173	    -14.93607995	     -7.89194691	      1.77459744
      1.13133333	      3.54149981	      4.89302025	     -4.20191440	      0.21219221	      0.91657846	      0.28663601	     15.34376289	     -7.43144639	     -6.86297523	    -72.52434319	      2.07169442	      5.05949083	      6.68564718	      2.95347350	      7.39555004	     -4.59436684	    -16.66525700	     12.46232858	     -6.97463024	      4.75665161	    -14.97278021	     -7.58162508	      1.58077075
      1.13550000	      3.49878082	      4.62704307	     -4.08532225	      0.21782331	      0.91755267	      0.28649639	     16.03034131	     -7.01057919	     -6.92926978	    -71.93869011	      2.53611230	      5.18177808	      6.63796617	      2.30969978	      7.16192182	     -4.38330269	    -16.10932634	     12.46396323	     -6.99151737	      4.74163288	    -14.99899075	     -7.25357248	      1.42875342
      1.13966667	      3.46982266	      4.36194387	     -3.96026177	      0.22345588	      0.91851193	      0.28634479	     16.67677249	     -6.59720983	     -7.00601043	    -71.27795856	      2.97713090	      5.29334275	      6.57850609	      1.64731868	      6.92889187	     -4.15950381	    -15.53991440	     12.45200886	     -7.02121084	      4.72328844	    -15.04474993	     -6.92612027	      1.26165869
      1.14383333	      3.41915121	      4.08446403	     -3.82797421	      0.22905914	      0.91939613	      0.28620225	     17.32651890	     -6.16197220	     -7.07828655	    -70.54468710	      3.41012703	      5.38140541	      6.55025275	      1.03378255	      6.66812007	     -3.98488931	    -15.01655275	     12.43291950	     -6.99568816	      4.71317121	    -15.07001430	     -6.58339706	      1.15188353
      1.14800000	      3.43482044	      3.81644634	     -3.67986833	      0.23470423	      0.92034686	      0.28600535	     17.86735609	     -5.76813943	     -7.19148557	    -69.72847763	      3.77284191	      5.46738113	      6.48828484	      0.31325027	      6.43294210	     -3.72553089	    -14.41915969	     12.43800219	     -7.04710170	      4.69525993	    -15.15998566	     -6.24010726	      0.95076541
      1.15216667	      3.39865680	      3.53843871	     -3.52841996	      0.24028782	      0.92116995	      0.28584607	     18.45228776	     -5.34348183	     -7.28181116	    -68.85018069	      4.15446319	      5.52477603	      6.45109004	     -0.30823467	      6.16585496	     -3.53855552	    -13.89762475	     12.39882206	     -7.04414545	      4.68291264	    -15.20142744	     -5.90069453	      0.82360535
      1.15633333	      3.43442468	      3.27541310	     -3.36684359	      0.24591841	      0.92205118	      0.28563087	     18.92705448	     -4.96803510	     -7.40768458	    -67.90103249	      4.45124318	      5.54813483	      6.37823498	     -1.04681081	      5.92924763	     -3.27303452	    -13.29413877	     12.39262275	     -7.10956448	      4.66288854	    -15.31514154	     -5.55692983	      0.60893182
